<svg xmlns="http://www.w3.org/2000/svg" width="19.845" height="19.841" viewBox="0 0 19.845 19.841">
  <path id="Icon_awesome-instagram" data-name="Icon awesome-instagram" d="M9.92,7.071a5.087,5.087,0,1,0,5.087,5.087A5.079,5.079,0,0,0,9.92,7.071Zm0,8.394a3.307,3.307,0,1,1,3.307-3.307A3.313,3.313,0,0,1,9.92,15.465Zm6.482-8.6a1.187,1.187,0,1,1-1.187-1.187A1.184,1.184,0,0,1,16.4,6.863Zm3.369,1.2a5.872,5.872,0,0,0-1.6-4.157,5.91,5.91,0,0,0-4.157-1.6c-1.638-.093-6.548-.093-8.186,0a5.9,5.9,0,0,0-4.157,1.6,5.891,5.891,0,0,0-1.6,4.157c-.093,1.638-.093,6.548,0,8.186a5.872,5.872,0,0,0,1.6,4.157,5.918,5.918,0,0,0,4.157,1.6c1.638.093,6.548.093,8.186,0a5.872,5.872,0,0,0,4.157-1.6,5.91,5.91,0,0,0,1.6-4.157c.093-1.638.093-6.544,0-8.182Zm-2.116,9.939a3.348,3.348,0,0,1-1.886,1.886c-1.306.518-4.405.4-5.848.4s-4.547.115-5.848-.4a3.348,3.348,0,0,1-1.886-1.886c-.518-1.306-.4-4.405-.4-5.849s-.115-4.547.4-5.849A3.348,3.348,0,0,1,4.071,4.424c1.306-.518,4.405-.4,5.848-.4s4.547-.115,5.848.4A3.348,3.348,0,0,1,17.654,6.31c.518,1.306.4,4.405.4,5.849S18.172,16.705,17.654,18.007Z" transform="translate(0.005 -2.238)" fill="#94d40b"/>
</svg>
