<svg xmlns="http://www.w3.org/2000/svg" width="21.96" height="21.958" viewBox="0 0 21.96 21.958">
  <path id="Icon_awesome-facebook-messenger" data-name="Icon awesome-facebook-messenger" d="M11.567.563c-6.2,0-11,4.531-11,10.651a10.409,10.409,0,0,0,3.456,7.878c.37.332.294.525.356,2.578a.882.882,0,0,0,1.234.778c2.342-1.032,2.373-1.113,2.77-1.005,6.787,1.868,14.143-2.475,14.143-10.229C22.522,5.093,17.767.563,11.567.563Zm6.607,8.2-3.232,5.117a1.654,1.654,0,0,1-2.387.44L9.984,12.391a.664.664,0,0,0-.8,0l-3.47,2.632a.522.522,0,0,1-.758-.694L8.192,9.212a1.654,1.654,0,0,1,2.387-.44L13.149,10.7a.664.664,0,0,0,.8,0l3.471-2.629a.521.521,0,0,1,.757.692Z" transform="translate(-0.563 -0.563)" fill="#94d40b"/>
</svg>
