<svg xmlns="http://www.w3.org/2000/svg" width="22.313" height="22.313" viewBox="0 0 22.313 22.313">
  <path id="Icon_awesome-snapchat" data-name="Icon awesome-snapchat" d="M11.157.563A11.157,11.157,0,1,0,22.313,11.719,11.155,11.155,0,0,0,11.157.563Zm7.625,15.246c-.157.364-.814.63-2.015.819a5.528,5.528,0,0,0-.193.715.347.347,0,0,1-.364.265H16.2c-.279,0-.576-.13-1.161-.13a2.365,2.365,0,0,0-1.682.616,3.356,3.356,0,0,1-2.213.819,3.432,3.432,0,0,1-2.182-.819,2.372,2.372,0,0,0-1.682-.616,11.468,11.468,0,0,0-1.161.139.357.357,0,0,1-.373-.27,5.648,5.648,0,0,0-.193-.72c-.621-.094-2.015-.337-2.047-.963a.318.318,0,0,1,.265-.333,4.505,4.505,0,0,0,3.059-2.569s0-.009.009-.013a.673.673,0,0,0,.072-.562c-.153-.355-.805-.481-1.08-.594-.711-.279-.81-.6-.765-.823a.77.77,0,0,1,.985-.463,1.7,1.7,0,0,0,.706.189.631.631,0,0,0,.3-.063,8.9,8.9,0,0,1,.171-3.468,4.085,4.085,0,0,1,3.783-2.443l.3,0A4.049,4.049,0,0,1,15.1,6.96a8.891,8.891,0,0,1,.171,3.468.566.566,0,0,0,.256.063,1.775,1.775,0,0,0,.661-.189.822.822,0,0,1,.612,0,.626.626,0,0,1,.468.535c0,.292-.256.544-.774.747-.063.027-.139.049-.22.076-.292.094-.738.234-.855.517a.69.69,0,0,0,.072.562s0,.009.009.013a4.505,4.505,0,0,0,3.059,2.569.345.345,0,0,1,.22.486Z" transform="translate(0 -0.563)" fill="#94d40b"/>
</svg>
