<svg xmlns="http://www.w3.org/2000/svg" width="19.694" height="22.668" viewBox="0 0 19.694 22.668">
  <path id="Icon_simple-tiktok" data-name="Icon simple-tiktok" d="M12.712.019C13.949,0,15.177.009,16.4,0a5.883,5.883,0,0,0,1.653,3.939,6.661,6.661,0,0,0,4,1.691V9.436A10.11,10.11,0,0,1,18.1,8.519a11.669,11.669,0,0,1-1.53-.878c-.009,2.758.009,5.516-.019,8.264a7.214,7.214,0,0,1-1.275,3.721,7.037,7.037,0,0,1-5.582,3.032,6.887,6.887,0,0,1-3.854-.973,7.122,7.122,0,0,1-3.447-5.393c-.019-.472-.028-.944-.009-1.407a7.11,7.11,0,0,1,8.245-6.309c.019,1.4-.038,2.8-.038,4.194a3.241,3.241,0,0,0-4.137,2,3.747,3.747,0,0,0-.132,1.521A3.215,3.215,0,0,0,9.623,19a3.173,3.173,0,0,0,2.616-1.521,2.179,2.179,0,0,0,.387-1c.094-1.691.057-3.372.066-5.063.009-3.806-.009-7.6.019-11.4Z" transform="translate(-2.369)" fill="#94d40b"/>
</svg>
