<svg xmlns="http://www.w3.org/2000/svg" width="64.254" height="80.12" viewBox="0 0 64.254 80.12">
  <path id="Path_62" data-name="Path 62" d="M60.222,46.9V34.127A24.1,24.1,0,0,0,40.143,10.393V6.016a4.016,4.016,0,1,0-8.032,0v4.377A24.1,24.1,0,0,0,12.032,34.127V46.9A12.048,12.048,0,0,0,4,58.222v8.032A4.016,4.016,0,0,0,8.016,70.27h12.61a16.063,16.063,0,0,0,31,0h12.61a4.016,4.016,0,0,0,4.016-4.016V58.222A12.048,12.048,0,0,0,60.222,46.9ZM20.063,34.127a16.063,16.063,0,0,1,32.127,0V46.174H20.063ZM36.127,74.285A8.032,8.032,0,0,1,29.22,70.27H43.034A8.032,8.032,0,0,1,36.127,74.285Zm24.1-12.048H12.032V58.222a4.016,4.016,0,0,1,4.016-4.016H56.206a4.016,4.016,0,0,1,4.016,4.016Z" transform="translate(-4 -2)" fill="#fff"/>
</svg>
