<svg xmlns="http://www.w3.org/2000/svg" width="40" height="40" viewBox="0 0 40 40">
  <g id="Group_263" data-name="Group 263" transform="translate(-260 132)">
    <circle id="Ellipse_22" data-name="Ellipse 22" cx="20" cy="20" r="20" transform="translate(260 -132)" fill="#94d40b"/>
    <path id="Subtraction_5" data-name="Subtraction 5" d="M12.633,34.667A19.919,19.919,0,0,1,0,30.173L26.229,0a20.011,20.011,0,0,1-5.812,33.1A19.874,19.874,0,0,1,12.633,34.667Z" transform="translate(267.367 -126.667)" fill="#88c40a"/>
    <path id="Subtraction_4" data-name="Subtraction 4" d="M7.326,35.474h0A20,20,0,1,1,33.558,5.3L7.327,35.473Z" transform="translate(260 -132)" fill="#94d40b"/>
    <g id="Group_261" data-name="Group 261" transform="translate(268.867 -124.718)">
      <g id="Group_192" data-name="Group 192" transform="translate(0)">
        <path id="Path_15" data-name="Path 15" d="M11.912-30.031q-4.167,0-4.167,9.384a21.056,21.056,0,0,0,.978,7.066A3.806,3.806,0,0,0,12.637-10.9a7.24,7.24,0,0,0,2.5-.4l-.217-3.084,4.819-.507v6.2a15.34,15.34,0,0,1-3.732,1.123,23.658,23.658,0,0,1-4.094.362Q6.4-7.2,3.85-10.628T1.3-19.813q0-6.051,2.718-9.439t8.334-3.388A12.123,12.123,0,0,1,18-31.481a4.064,4.064,0,0,1,2.21,3.913,3.35,3.35,0,0,1-1.051,2.573,3.73,3.73,0,0,1-2.645.978,4.027,4.027,0,0,1-1.884-.4,7.092,7.092,0,0,0,.254-1.92,4.517,4.517,0,0,0-.725-2.681A2.573,2.573,0,0,0,11.912-30.031Z" transform="translate(-1.296 32.64)" fill="#fff"/>
      </g>
      <path id="Path_20" data-name="Path 20" d="M2.74,3.342a6.273,6.273,0,0,0,2.431.191c1.966-.19,7.227.853,6.983,7.836C11.018,8.892,6.8,10.028,5.171,9.5S-2.042,5.061.786,0C.941,4.4,3.265,5.828,4.713,6.129A19.494,19.494,0,0,1,8.7,7.876a5.582,5.582,0,0,0-3.532-2.72C2.776,4.669,2.761,3.485,2.74,3.342Z" transform="matrix(0.985, -0.174, 0.174, 0.985, 8.313, 10.363)" fill="#fff"/>
    </g>
  </g>
</svg>
