<svg xmlns="http://www.w3.org/2000/svg" width="78.6" height="80.12" viewBox="0 0 78.6 80.12">
  <path id="Path_61" data-name="Path 61" d="M3.967,29.527,39.335,49.962a3.93,3.93,0,0,0,3.93,0L78.632,29.527a3.923,3.923,0,0,0,0-6.8L43.264,2.333a3.93,3.93,0,0,0-3.93,0L3.967,22.728a3.923,3.923,0,0,0,0,6.8ZM41.3,10.428,68.808,26.147,41.3,41.866,13.791,26.147ZM74.7,38.6,41.3,57.585,7.9,38.447a3.926,3.926,0,1,0-3.93,6.8L39.335,65.681a3.93,3.93,0,0,0,3.93,0L78.632,45.246a3.926,3.926,0,1,0-3.93-6.8Zm0,15.719L41.3,73.3,7.9,54.166a3.926,3.926,0,1,0-3.93,6.8L39.335,81.4a3.93,3.93,0,0,0,3.93,0L78.632,60.965a3.926,3.926,0,1,0-3.93-6.8Z" transform="translate(-1.999 -1.806)" fill="#fff"/>
</svg>
