<svg xmlns="http://www.w3.org/2000/svg" width="80.195" height="80.12" viewBox="0 0 80.195 80.12">
  <path id="Path_60" data-name="Path 60" d="M79.864,28.59v-.2a40.177,40.177,0,0,0-75.453,0s0,0,0,.2a39.615,39.615,0,0,0,0,27s0,0,0,.2a40.177,40.177,0,0,0,75.453,0v-.2a39.615,39.615,0,0,0,0-27ZM10.96,50.125a31.419,31.419,0,0,1,0-16.071h7.473a67.216,67.216,0,0,0,0,16.071Zm3.295,8.035h5.625A48.816,48.816,0,0,0,23.9,68.486,32.142,32.142,0,0,1,14.254,58.16Zm5.625-32.142H14.254a32.142,32.142,0,0,1,9.522-10.326,48.815,48.815,0,0,0-3.9,10.326Zm18.16,47.007A25.472,25.472,0,0,1,28.276,58.16h9.763Zm0-22.9H26.549a57.7,57.7,0,0,1,0-16.071H38.039Zm0-24.106H28.276a25.472,25.472,0,0,1,9.763-14.866Zm31.82,0H64.235a48.816,48.816,0,0,0-4.018-10.326A32.142,32.142,0,0,1,69.86,26.018ZM46.075,11.153a25.472,25.472,0,0,1,9.763,14.866H46.075Zm0,61.873V58.16h9.763A25.472,25.472,0,0,1,46.075,73.026Zm11.491-22.9H46.075V34.054H57.566a57.7,57.7,0,0,1,0,16.071Zm2.772,18.361A48.815,48.815,0,0,0,64.356,58.16H69.98A32.142,32.142,0,0,1,60.338,68.486ZM73.154,50.125H65.681a64.926,64.926,0,0,0,.482-8.035,65.407,65.407,0,0,0-.482-8.035h7.473A31.419,31.419,0,0,1,73.154,50.125Z" transform="translate(-2.04 -2.029)" fill="#fff"/>
</svg>
