<svg xmlns="http://www.w3.org/2000/svg" width="64.254" height="80.12"><path data-name="Path 62" d="M56.222 44.9V32.127A24.1 24.1 0 0 0 36.143 8.393V4.016a4.016 4.016 0 1 0-8.032 0v4.377A24.1 24.1 0 0 0 8.032 32.127V44.9A12.048 12.048 0 0 0 0 56.222v8.032a4.016 4.016 0 0 0 4.016 4.016h12.61a16.063 16.063 0 0 0 31 0h12.61a4.016 4.016 0 0 0 4.016-4.016v-8.032a12.048 12.048 0 0 0-8.03-11.322zM16.063 32.127a16.064 16.064 0 0 1 32.127 0v12.047H16.063zm16.064 40.158a8.032 8.032 0 0 1-6.907-4.015h13.814a8.032 8.032 0 0 1-6.907 4.015zm24.1-12.048H8.032v-4.015a4.016 4.016 0 0 1 4.016-4.016h40.158a4.016 4.016 0 0 1 4.016 4.016z" fill="#fff"/></svg>