<svg data-name="Group 329" xmlns="http://www.w3.org/2000/svg" width="76.372" height="80.12"><path data-name="Path 56" d="M40.205 72.657c-1.131-.593-2.261-1.195-3.392-1.788q-4.078-2.153-8.147-4.306l-9.9-5.228-8.524-4.5c-1.379-.73-2.75-1.483-4.146-2.189l-.056-.032c.666 1.155 1.323 2.309 1.989 3.464V26.453c0-1.459.024-2.919 0-4.378v-.056q-3.019 1.732-6.03 3.464c1.131.6 2.261 1.195 3.392 1.8q4.078 2.153 8.147 4.306l9.9 5.228q4.258 2.249 8.524 4.507c1.379.73 2.75 1.483 4.146 2.189l.056.032c-.666-1.155-1.323-2.309-1.989-3.464v31.594c0 1.459-.016 2.919 0 4.378v.056a4.174 4.174 0 0 0 1.171 2.839 4.027 4.027 0 0 0 5.677 0 4.159 4.159 0 0 0 1.166-2.843V44.511c0-1.459.016-2.919 0-4.378v-.056a4.006 4.006 0 0 0-1.989-3.464c-1.131-.6-2.261-1.195-3.392-1.8q-4.078-2.153-8.147-4.306l-9.9-5.228q-4.258-2.249-8.524-4.507c-1.379-.73-2.758-1.475-4.146-2.189l-.056-.032a4.1 4.1 0 0 0-4.049 0 4.04 4.04 0 0 0-1.989 3.464v31.626c0 1.459-.016 2.919 0 4.378v.056a4 4 0 0 0 1.989 3.464c1.131.593 2.261 1.195 3.392 1.788q4.078 2.153 8.147 4.306l9.9 5.228 8.524 4.5c1.379.73 2.758 1.475 4.146 2.189l.056.032a4.229 4.229 0 0 0 3.087.4 4.1 4.1 0 0 0 2.4-1.844 4.041 4.041 0 0 0 .4-3.087 4 4 0 0 0-1.833-2.394z" fill="#fff"/><path data-name="Path 57" d="M70.332 54.613c-1.131.593-2.261 1.195-3.392 1.788q-4.077 2.153-8.147 4.306l-9.9 5.228-8.524 4.5c-1.379.73-2.775 1.435-4.146 2.189l-.056.032q3.019 1.732 6.03 3.464V44.527c0-1.459.024-2.919 0-4.378v-.056c-.666 1.155-1.323 2.309-1.989 3.464 1.131-.6 2.261-1.195 3.392-1.8q4.078-2.153 8.147-4.306l9.9-5.228q4.258-2.249 8.524-4.507c1.379-.73 2.774-1.443 4.146-2.189l.056-.032q-3.019-1.732-6.03-3.464v31.626c0 1.459-.016 2.919 0 4.378v.056a4.174 4.174 0 0 0 1.171 2.839 4.027 4.027 0 0 0 5.677 0 4.159 4.159 0 0 0 1.171-2.839V26.469c0-1.459.016-2.919 0-4.378v-.056a4.05 4.05 0 0 0-1.989-3.464 4.1 4.1 0 0 0-4.049 0c-1.131.6-2.261 1.195-3.392 1.8q-4.078 2.153-8.147 4.306l-9.9 5.228q-4.258 2.249-8.524 4.507c-1.379.73-2.783 1.435-4.146 2.189l-.056.032a3.986 3.986 0 0 0-1.989 3.464v31.594c0 1.459-.016 2.919 0 4.378v.056a4.05 4.05 0 0 0 1.989 3.464 4.117 4.117 0 0 0 4.049 0c1.131-.593 2.261-1.195 3.392-1.788q4.078-2.153 8.147-4.306l9.9-5.228 8.524-4.5c1.379-.73 2.783-1.435 4.146-2.189l.056-.032a4.01 4.01 0 1 0-4.041-6.928z" fill="#fff"/><path data-name="Path 58" d="M70.331 18.561c-1.131.6-2.261 1.195-3.392 1.8q-4.078 2.153-8.147 4.306l-9.9 5.228q-4.253 2.246-8.515 4.503c-1.379.73-2.774 1.443-4.146 2.189l-.056.032h4.049c-1.131-.6-2.261-1.195-3.392-1.8q-4.078-2.153-8.147-4.306l-9.9-5.228q-4.258-2.249-8.524-4.507c-1.379-.73-2.75-1.483-4.146-2.189l-.056-.032v6.921c1.131-.593 2.261-1.195 3.392-1.788q4.078-2.153 8.147-4.306l9.9-5.228q4.258-2.249 8.524-4.507c1.379-.73 2.774-1.443 4.146-2.189l.056-.032h-4.052c1.131.593 2.261 1.195 3.392 1.788q4.078 2.153 8.147 4.306l9.9 5.228q4.258 2.249 8.524 4.507c1.379.73 2.758 1.475 4.146 2.189l.056.032a4.229 4.229 0 0 0 3.087.4 4.1 4.1 0 0 0 2.4-1.844 4.013 4.013 0 0 0-1.443-5.485c-1.147-.6-2.293-1.211-3.44-1.812q-4.09-2.153-8.171-4.314l-9.944-5.245q-4.246-2.249-8.492-4.49c-1.363-.722-2.718-1.467-4.09-2.157a4.248 4.248 0 0 0-2.6-.5 4.46 4.46 0 0 0-1.54.505c-.152.08-.3.16-.449.233-.706.369-1.411.746-2.117 1.115q-3.861 2.045-7.73 4.082-4.92 2.6-9.847 5.2-4.45 2.345-8.893 4.7-2.43 1.287-4.859 2.566c-.072.04-.152.08-.225.12a4.034 4.034 0 0 0 0 6.92c1.147.609 2.293 1.211 3.44 1.82q4.09 2.165 8.171 4.322 4.968 2.622 9.935 5.252 4.246 2.249 8.492 4.49c1.363.722 2.718 1.467 4.09 2.165a4.248 4.248 0 0 0 2.6.5 4.46 4.46 0 0 0 1.54-.505c.152-.08.3-.16.449-.233.706-.369 1.411-.746 2.117-1.115q3.861-2.045 7.73-4.09 4.92-2.6 9.847-5.2 4.45-2.345 8.893-4.7l4.859-2.574c.072-.04.152-.08.225-.12a4.01 4.01 0 1 0-4.041-6.928z" fill="#fff"/><path data-name="Path 59" d="M23.125 34.526c1.131-.6 2.261-1.195 3.392-1.8q4.078-2.153 8.147-4.306l9.9-5.228q4.258-2.249 8.524-4.507c1.379-.73 2.782-1.435 4.146-2.189l.056-.032a4.007 4.007 0 1 0-4.041-6.92c-1.131.6-2.261 1.195-3.392 1.8q-4.078 2.153-8.147 4.306l-9.9 5.228q-4.258 2.249-8.524 4.507c-1.379.73-2.783 1.435-4.146 2.189l-.056.032a4.007 4.007 0 1 0 4.041 6.92z" fill="#fff"/></svg>