<svg xmlns="http://www.w3.org/2000/svg" width="78.6" height="80.12"><path data-name="Path 61" d="m1.968 27.721 35.368 20.435a3.93 3.93 0 0 0 3.93 0l35.367-20.435a3.923 3.923 0 0 0 0-6.8L41.265.527a3.93 3.93 0 0 0-3.93 0L1.968 20.922a3.923 3.923 0 0 0 0 6.8zM39.301 8.622l27.508 15.719L39.301 40.06 11.792 24.341zm33.4 28.172-33.4 18.985-33.4-19.138a3.927 3.927 0 1 0-3.93 6.8l35.365 20.434a3.93 3.93 0 0 0 3.93 0L76.633 43.44a3.927 3.927 0 1 0-3.93-6.8zm0 15.719-33.4 18.981-33.4-19.134a3.927 3.927 0 1 0-3.93 6.8l35.365 20.434a3.93 3.93 0 0 0 3.93 0l35.367-20.435a3.927 3.927 0 1 0-3.93-6.8z" fill="#fff"/></svg>