<svg xmlns="http://www.w3.org/2000/svg" width="80.195" height="80.12"><path data-name="Path 60" d="M77.824 26.561v-.2a40.177 40.177 0 0 0-75.453 0v.2a39.615 39.615 0 0 0 0 27v.2a40.177 40.177 0 0 0 75.453 0v-.2a39.615 39.615 0 0 0 0-27zM8.92 48.096a31.419 31.419 0 0 1 0-16.071h7.473a67.216 67.216 0 0 0 0 16.071zm3.295 8.035h5.625a48.816 48.816 0 0 0 4.02 10.326 32.142 32.142 0 0 1-9.646-10.326zm5.625-32.142h-5.626a32.142 32.142 0 0 1 9.522-10.326 48.815 48.815 0 0 0-3.9 10.326zM36 70.996a25.472 25.472 0 0 1-9.764-14.865h9.763zm0-22.9L24.509 33.231a57.7 57.7 0 0 1 0-16.071h11.49zm0-24.106L26.236-6.946a25.472 25.472 0 0 1 9.763-14.866zm31.82 0-5.625-45.802a48.816 48.816 0 0 0-4.018-10.326 32.142 32.142 0 0 1 9.643 56.127zM44.035 9.124a25.472 25.472 0 0 1 9.763 14.866h-9.763zm0 61.873V56.131h9.763a25.472 25.472 0 0 1-9.763 14.866zm11.491-22.9H44.035V32.025h11.491a57.7 57.7 0 0 1 0 16.071zm2.772 18.361a48.815 48.815 0 0 0 4.018-10.327h5.624a32.142 32.142 0 0 1-9.642 10.326zm12.816-18.362h-7.473a64.926 64.926 0 0 0 .482-8.035 65.407 65.407 0 0 0-.482-8.035h7.473a31.419 31.419 0 0 1 0 16.07z" fill="#fff"/></svg>