<svg xmlns="http://www.w3.org/2000/svg" width="25.857" height="22.625" viewBox="0 0 25.857 22.625">
  <path id="camera-solid_1_" data-name="camera-solid (1)" d="M9.828,32h6.2a2.418,2.418,0,0,1,2.3,1.657l.525,1.575h3.773a3.235,3.235,0,0,1,3.232,3.232V51.393a3.235,3.235,0,0,1-3.232,3.232H3.232A3.234,3.234,0,0,1,0,51.393V38.464a3.234,3.234,0,0,1,3.232-3.232H7l.525-1.575A2.418,2.418,0,0,1,9.828,32Zm3.1,17.777a4.848,4.848,0,1,0,0-9.7,4.848,4.848,0,1,0,0,9.7Z" transform="translate(0 -32)" fill="#fff"/>
</svg>
