<svg xmlns="http://www.w3.org/2000/svg" width="25.371" height="22.56" viewBox="0 0 25.371 22.56">
  <path id="trophy-solid" d="M25.209,3.63a1.06,1.06,0,0,0-1.031-.81H19.736c.011-.549,0-1.044-.007-1.455A1.4,1.4,0,0,0,18.322,0H7.06A1.4,1.4,0,0,0,5.65,1.365a11.316,11.316,0,0,0,0,1.455H1.2a1.059,1.059,0,0,0-1.029.81,9.728,9.728,0,0,0,1.461,7.205c1.65,2.46,4.433,4.187,8.262,5.173a1.87,1.87,0,0,1,1.384,1.823A1.914,1.914,0,0,1,9.369,19.74h-.2a2.115,2.115,0,0,0-2.115,2.115.7.7,0,0,0,.665.7h9.83a.672.672,0,0,0,.665-.7A2.115,2.115,0,0,0,16.1,19.74h-.2a1.915,1.915,0,0,1-1.911-1.91,1.87,1.87,0,0,1,1.384-1.823c3.832-.984,6.614-2.712,8.262-5.173A9.466,9.466,0,0,0,25.209,3.63ZM3.412,9.685a7.705,7.705,0,0,1-1.279-4.75H5.675a18.733,18.733,0,0,0,2.541,8.332A10.111,10.111,0,0,1,3.412,9.685Zm18.558,0a10.079,10.079,0,0,1-4.8,3.579,18.682,18.682,0,0,0,2.538-8.329h3.542A7.975,7.975,0,0,1,21.97,9.685Z" transform="translate(-0.001)" fill="#1a5632"/>
</svg>
