<svg xmlns="http://www.w3.org/2000/svg" width="25.379" height="22.56" viewBox="0 0 25.379 22.56">
  <path id="house-solid_1_" data-name="house-solid (1)" d="M25.371,11.258a1.424,1.424,0,0,1-1.41,1.414h-1.41l.031,7.054a3.168,3.168,0,0,1-.022.357V20.8A1.762,1.762,0,0,1,20.8,22.56h-.7c-.048,0-.1-.04-.145,0-.062-.035-.123,0-.185,0H17.272A1.762,1.762,0,0,1,15.51,20.8V16.92a1.408,1.408,0,0,0-1.41-1.41H11.28a1.408,1.408,0,0,0-1.41,1.41V20.8A1.762,1.762,0,0,1,8.107,22.56H5.644c-.066,0-.132,0-.2-.009s-.106.009-.159.009h-.7A1.762,1.762,0,0,1,2.82,20.8V15.862c0-.04,0-.084,0-.123V12.672H1.412A1.4,1.4,0,0,1,0,11.258,1.432,1.432,0,0,1,.441,10.2L11.738.353A1.27,1.27,0,0,1,12.707,0a1.482,1.482,0,0,1,.93.309L24.886,10.2a1.2,1.2,0,0,1,.485,1.057Z" fill="#1a5632"/>
</svg>
